<?xml version="1.0" encoding="utf-8"?>
<!-- Generator: Adobe Illustrator 16.0.0, SVG Export Plug-In . SVG Version: 6.00 Build 0)  -->
<!DOCTYPE svg PUBLIC "-//W3C//DTD SVG 1.1//EN" "http://www.w3.org/Graphics/SVG/1.1/DTD/svg11.dtd">
<svg version="1.1" id="Layer_1" xmlns="http://www.w3.org/2000/svg" xmlns:xlink="http://www.w3.org/1999/xlink" x="0px" y="0px"
	 width="48px" height="48px" viewBox="0 0 48 48" enable-background="new 0 0 48 48" xml:space="preserve">
<g>
	<path d="M23.922,0.878c-12.559,0-22.776,10.217-22.776,22.777c0,12.559,10.218,22.776,22.776,22.776
		c12.56,0,22.776-10.217,22.776-22.776C46.698,11.095,36.481,0.878,23.922,0.878z M23.922,40.949
		c-9.535,0-17.294-7.759-17.294-17.294c0-9.536,7.759-17.295,17.294-17.295c9.536,0,17.294,7.759,17.294,17.295
		C41.216,33.19,33.458,40.949,23.922,40.949z"/>
	<path d="M23.059,11.951c0-0.89-0.025-1.658-0.058-2.378l0.019-0.008c0.269,0.639,0.621,1.337,0.944,1.919l1.164,2.098h1.298V8.166
		h-1.122v1.569c0,0.817,0.01,1.535,0.091,2.262H25.37c-0.242-0.594-0.566-1.276-0.891-1.851l-1.133-1.98h-1.411v5.416h1.123V11.951z
		"/>
	<path d="M24.551,36.268C23.848,36,23.54,35.847,23.54,35.499c0-0.283,0.258-0.525,0.793-0.525c0.532,0,0.922,0.153,1.141,0.259
		l0.274-0.995c-0.323-0.146-0.776-0.275-1.392-0.275c-1.286,0-2.062,0.711-2.062,1.642c0,0.792,0.591,1.294,1.496,1.609
		c0.655,0.235,0.913,0.429,0.913,0.769c0,0.356-0.298,0.591-0.865,0.591c-0.525,0-1.035-0.17-1.366-0.34l-0.251,1.019
		c0.308,0.17,0.922,0.332,1.545,0.332c1.496,0,2.2-0.776,2.2-1.69C25.967,37.125,25.514,36.623,24.551,36.268z"/>
	<path d="M13.723,23.396c-0.113,0.647-0.234,1.283-0.314,1.877h-0.017c-0.081-0.595-0.17-1.174-0.291-1.813l-0.437-2.282h-1.312
		l-0.46,2.238c-0.138,0.671-0.267,1.328-0.356,1.923h-0.016c-0.089-0.595-0.202-1.26-0.323-1.907l-0.413-2.254H8.466l1.295,5.416
		h1.351l0.517-2.346c0.13-0.55,0.22-1.022,0.315-1.683h0.018c0.063,0.66,0.153,1.133,0.258,1.683l0.461,2.346h1.334l1.407-5.416
		h-1.253L13.723,23.396z"/>
	<polygon points="36.994,25.603 36.994,24.282 38.976,24.282 38.976,23.291 36.994,23.291 36.994,22.168 39.108,22.168 
		39.108,21.178 35.738,21.178 35.738,26.594 39.239,26.594 39.239,25.603 	"/>
	<path d="M28.625,15.081l-0.24-0.121c-0.388-0.195-0.859-0.065-1.093,0.301l-3.44,5.407c-1.616,0.037-2.919,1.362-2.919,2.987
		c0,0.567,0.159,1.098,0.436,1.55l-2.286,5.939c-0.156,0.405,0.021,0.862,0.408,1.058l0.239,0.121
		c0.388,0.196,0.859,0.065,1.093-0.301l3.435-5.397c1.491-0.167,2.653-1.435,2.653-2.969c0-0.453-0.102-0.883-0.282-1.268
		l2.405-6.249C29.189,15.733,29.013,15.276,28.625,15.081z"/>
</g>
</svg>
